<mxfile host="Electron" modified="2023-05-19T09:21:48.317Z" agent="Mozilla/5.0 (Windows NT 10.0; Win64; x64) AppleWebKit/537.36 (KHTML, like Gecko) draw.io/21.2.8 Chrome/112.0.5615.165 Electron/24.2.0 Safari/537.36" etag="xOYGUmx9eEC9d7GC9wa5" version="21.2.8" type="device">
  <diagram id="R2lEEEUBdFMjLlhIrx00" name="Page-1">
    <mxGraphModel dx="2465" dy="2055" grid="1" gridSize="10" guides="1" tooltips="1" connect="1" arrows="1" fold="1" page="1" pageScale="1" pageWidth="850" pageHeight="1100" math="0" shadow="0" extFonts="Permanent Marker^https://fonts.googleapis.com/css?family=Permanent+Marker">
      <root>
        <mxCell id="0" />
        <mxCell id="1" parent="0" />
        <mxCell id="kO3EOSv8IpE219HTAOuX-17" style="edgeStyle=orthogonalEdgeStyle;rounded=0;orthogonalLoop=1;jettySize=auto;html=1;exitX=1;exitY=0.5;exitDx=0;exitDy=0;entryX=0;entryY=0.5;entryDx=0;entryDy=0;" edge="1" parent="1" source="kO3EOSv8IpE219HTAOuX-1" target="kO3EOSv8IpE219HTAOuX-7">
          <mxGeometry relative="1" as="geometry" />
        </mxCell>
        <mxCell id="kO3EOSv8IpE219HTAOuX-30" style="edgeStyle=orthogonalEdgeStyle;rounded=0;orthogonalLoop=1;jettySize=auto;html=1;exitX=0;exitY=0.5;exitDx=0;exitDy=0;entryX=1;entryY=0.5;entryDx=0;entryDy=0;" edge="1" parent="1" source="kO3EOSv8IpE219HTAOuX-1" target="kO3EOSv8IpE219HTAOuX-23">
          <mxGeometry relative="1" as="geometry" />
        </mxCell>
        <mxCell id="kO3EOSv8IpE219HTAOuX-39" style="edgeStyle=orthogonalEdgeStyle;rounded=0;orthogonalLoop=1;jettySize=auto;html=1;exitX=0;exitY=0.5;exitDx=0;exitDy=0;entryX=1;entryY=0.5;entryDx=0;entryDy=0;" edge="1" parent="1" source="kO3EOSv8IpE219HTAOuX-1" target="kO3EOSv8IpE219HTAOuX-24">
          <mxGeometry relative="1" as="geometry">
            <Array as="points">
              <mxPoint x="-80" y="330" />
              <mxPoint x="-80" y="305" />
            </Array>
          </mxGeometry>
        </mxCell>
        <mxCell id="kO3EOSv8IpE219HTAOuX-40" style="edgeStyle=orthogonalEdgeStyle;rounded=0;orthogonalLoop=1;jettySize=auto;html=1;exitX=0;exitY=0.5;exitDx=0;exitDy=0;entryX=1;entryY=0.5;entryDx=0;entryDy=0;" edge="1" parent="1" source="kO3EOSv8IpE219HTAOuX-1" target="kO3EOSv8IpE219HTAOuX-25">
          <mxGeometry relative="1" as="geometry">
            <Array as="points">
              <mxPoint x="-80" y="330" />
              <mxPoint x="-80" y="345" />
            </Array>
          </mxGeometry>
        </mxCell>
        <mxCell id="kO3EOSv8IpE219HTAOuX-41" style="edgeStyle=orthogonalEdgeStyle;rounded=0;orthogonalLoop=1;jettySize=auto;html=1;exitX=0;exitY=0.5;exitDx=0;exitDy=0;entryX=1;entryY=0.5;entryDx=0;entryDy=0;" edge="1" parent="1" source="kO3EOSv8IpE219HTAOuX-1" target="kO3EOSv8IpE219HTAOuX-28">
          <mxGeometry relative="1" as="geometry">
            <Array as="points">
              <mxPoint x="-80" y="330" />
              <mxPoint x="-80" y="385" />
            </Array>
          </mxGeometry>
        </mxCell>
        <mxCell id="kO3EOSv8IpE219HTAOuX-42" style="edgeStyle=orthogonalEdgeStyle;rounded=0;orthogonalLoop=1;jettySize=auto;html=1;exitX=0;exitY=0.5;exitDx=0;exitDy=0;entryX=1;entryY=0.5;entryDx=0;entryDy=0;" edge="1" parent="1" source="kO3EOSv8IpE219HTAOuX-1" target="kO3EOSv8IpE219HTAOuX-26">
          <mxGeometry relative="1" as="geometry">
            <Array as="points">
              <mxPoint x="-80" y="330" />
              <mxPoint x="-80" y="425" />
            </Array>
          </mxGeometry>
        </mxCell>
        <mxCell id="kO3EOSv8IpE219HTAOuX-44" style="edgeStyle=orthogonalEdgeStyle;rounded=0;orthogonalLoop=1;jettySize=auto;html=1;exitX=0;exitY=0.5;exitDx=0;exitDy=0;entryX=1;entryY=0.5;entryDx=0;entryDy=0;" edge="1" parent="1" source="kO3EOSv8IpE219HTAOuX-1" target="kO3EOSv8IpE219HTAOuX-27">
          <mxGeometry relative="1" as="geometry">
            <Array as="points">
              <mxPoint x="-80" y="330" />
              <mxPoint x="-80" y="465" />
            </Array>
          </mxGeometry>
        </mxCell>
        <mxCell id="kO3EOSv8IpE219HTAOuX-1" value="Entrenador" style="whiteSpace=wrap;html=1;align=center;" vertex="1" parent="1">
          <mxGeometry x="-50" y="300" width="120" height="60" as="geometry" />
        </mxCell>
        <mxCell id="kO3EOSv8IpE219HTAOuX-19" style="edgeStyle=orthogonalEdgeStyle;rounded=0;orthogonalLoop=1;jettySize=auto;html=1;" edge="1" parent="1" source="kO3EOSv8IpE219HTAOuX-2" target="kO3EOSv8IpE219HTAOuX-8">
          <mxGeometry relative="1" as="geometry" />
        </mxCell>
        <mxCell id="kO3EOSv8IpE219HTAOuX-163" style="edgeStyle=orthogonalEdgeStyle;rounded=0;orthogonalLoop=1;jettySize=auto;html=1;exitX=0.5;exitY=0;exitDx=0;exitDy=0;entryX=0.5;entryY=1;entryDx=0;entryDy=0;" edge="1" parent="1" source="kO3EOSv8IpE219HTAOuX-2" target="kO3EOSv8IpE219HTAOuX-127">
          <mxGeometry relative="1" as="geometry" />
        </mxCell>
        <mxCell id="kO3EOSv8IpE219HTAOuX-164" style="edgeStyle=orthogonalEdgeStyle;rounded=0;orthogonalLoop=1;jettySize=auto;html=1;exitX=0.5;exitY=0;exitDx=0;exitDy=0;entryX=0.5;entryY=1;entryDx=0;entryDy=0;" edge="1" parent="1" source="kO3EOSv8IpE219HTAOuX-2" target="kO3EOSv8IpE219HTAOuX-138">
          <mxGeometry relative="1" as="geometry" />
        </mxCell>
        <mxCell id="kO3EOSv8IpE219HTAOuX-165" style="edgeStyle=orthogonalEdgeStyle;rounded=0;orthogonalLoop=1;jettySize=auto;html=1;exitX=0.5;exitY=0;exitDx=0;exitDy=0;entryX=0.5;entryY=1;entryDx=0;entryDy=0;" edge="1" parent="1" source="kO3EOSv8IpE219HTAOuX-2" target="kO3EOSv8IpE219HTAOuX-134">
          <mxGeometry relative="1" as="geometry" />
        </mxCell>
        <mxCell id="kO3EOSv8IpE219HTAOuX-166" style="edgeStyle=orthogonalEdgeStyle;rounded=0;orthogonalLoop=1;jettySize=auto;html=1;exitX=0.5;exitY=0;exitDx=0;exitDy=0;entryX=0.5;entryY=1;entryDx=0;entryDy=0;" edge="1" parent="1" source="kO3EOSv8IpE219HTAOuX-2" target="kO3EOSv8IpE219HTAOuX-125">
          <mxGeometry relative="1" as="geometry" />
        </mxCell>
        <mxCell id="kO3EOSv8IpE219HTAOuX-167" style="edgeStyle=orthogonalEdgeStyle;rounded=0;orthogonalLoop=1;jettySize=auto;html=1;exitX=0.5;exitY=0;exitDx=0;exitDy=0;entryX=0.5;entryY=1;entryDx=0;entryDy=0;" edge="1" parent="1" source="kO3EOSv8IpE219HTAOuX-2" target="kO3EOSv8IpE219HTAOuX-122">
          <mxGeometry relative="1" as="geometry" />
        </mxCell>
        <mxCell id="kO3EOSv8IpE219HTAOuX-186" style="edgeStyle=orthogonalEdgeStyle;rounded=0;orthogonalLoop=1;jettySize=auto;html=1;exitX=0.5;exitY=0;exitDx=0;exitDy=0;entryX=0.5;entryY=1;entryDx=0;entryDy=0;" edge="1" parent="1">
          <mxGeometry relative="1" as="geometry">
            <mxPoint x="832" y="295" as="sourcePoint" />
            <mxPoint x="1281.9999999999995" y="145" as="targetPoint" />
            <Array as="points">
              <mxPoint x="832" y="275" />
              <mxPoint x="1282" y="275" />
            </Array>
          </mxGeometry>
        </mxCell>
        <mxCell id="kO3EOSv8IpE219HTAOuX-188" style="edgeStyle=orthogonalEdgeStyle;rounded=0;orthogonalLoop=1;jettySize=auto;html=1;exitX=1;exitY=0.5;exitDx=0;exitDy=0;entryX=0;entryY=0.5;entryDx=0;entryDy=0;" edge="1" parent="1" source="kO3EOSv8IpE219HTAOuX-2" target="kO3EOSv8IpE219HTAOuX-9">
          <mxGeometry relative="1" as="geometry" />
        </mxCell>
        <mxCell id="kO3EOSv8IpE219HTAOuX-2" value="Capturado" style="whiteSpace=wrap;html=1;align=center;" vertex="1" parent="1">
          <mxGeometry x="772" y="300" width="120" height="60" as="geometry" />
        </mxCell>
        <mxCell id="kO3EOSv8IpE219HTAOuX-86" style="edgeStyle=orthogonalEdgeStyle;rounded=0;orthogonalLoop=1;jettySize=auto;html=1;entryX=1;entryY=0.5;entryDx=0;entryDy=0;" edge="1" parent="1" source="kO3EOSv8IpE219HTAOuX-3" target="kO3EOSv8IpE219HTAOuX-73">
          <mxGeometry relative="1" as="geometry" />
        </mxCell>
        <mxCell id="kO3EOSv8IpE219HTAOuX-90" style="edgeStyle=orthogonalEdgeStyle;rounded=0;orthogonalLoop=1;jettySize=auto;html=1;exitX=0.5;exitY=1;exitDx=0;exitDy=0;entryX=0;entryY=0.5;entryDx=0;entryDy=0;" edge="1" parent="1" source="kO3EOSv8IpE219HTAOuX-3" target="kO3EOSv8IpE219HTAOuX-83">
          <mxGeometry relative="1" as="geometry" />
        </mxCell>
        <mxCell id="kO3EOSv8IpE219HTAOuX-91" style="edgeStyle=orthogonalEdgeStyle;rounded=0;orthogonalLoop=1;jettySize=auto;html=1;exitX=0.5;exitY=1;exitDx=0;exitDy=0;entryX=1;entryY=0.5;entryDx=0;entryDy=0;" edge="1" parent="1" source="kO3EOSv8IpE219HTAOuX-3" target="kO3EOSv8IpE219HTAOuX-74">
          <mxGeometry relative="1" as="geometry" />
        </mxCell>
        <mxCell id="kO3EOSv8IpE219HTAOuX-92" style="edgeStyle=orthogonalEdgeStyle;rounded=0;orthogonalLoop=1;jettySize=auto;html=1;exitX=0.5;exitY=1;exitDx=0;exitDy=0;entryX=0;entryY=0.5;entryDx=0;entryDy=0;" edge="1" parent="1" source="kO3EOSv8IpE219HTAOuX-3" target="kO3EOSv8IpE219HTAOuX-80">
          <mxGeometry relative="1" as="geometry" />
        </mxCell>
        <mxCell id="kO3EOSv8IpE219HTAOuX-93" style="edgeStyle=orthogonalEdgeStyle;rounded=0;orthogonalLoop=1;jettySize=auto;html=1;exitX=0.5;exitY=1;exitDx=0;exitDy=0;entryX=1;entryY=0.5;entryDx=0;entryDy=0;" edge="1" parent="1" source="kO3EOSv8IpE219HTAOuX-3" target="kO3EOSv8IpE219HTAOuX-76">
          <mxGeometry relative="1" as="geometry" />
        </mxCell>
        <mxCell id="kO3EOSv8IpE219HTAOuX-94" style="edgeStyle=orthogonalEdgeStyle;rounded=0;orthogonalLoop=1;jettySize=auto;html=1;exitX=0.5;exitY=1;exitDx=0;exitDy=0;entryX=0;entryY=0.5;entryDx=0;entryDy=0;" edge="1" parent="1" source="kO3EOSv8IpE219HTAOuX-3" target="kO3EOSv8IpE219HTAOuX-84">
          <mxGeometry relative="1" as="geometry" />
        </mxCell>
        <mxCell id="kO3EOSv8IpE219HTAOuX-95" style="edgeStyle=orthogonalEdgeStyle;rounded=0;orthogonalLoop=1;jettySize=auto;html=1;exitX=0.5;exitY=1;exitDx=0;exitDy=0;entryX=1;entryY=0.5;entryDx=0;entryDy=0;" edge="1" parent="1" source="kO3EOSv8IpE219HTAOuX-3" target="kO3EOSv8IpE219HTAOuX-79">
          <mxGeometry relative="1" as="geometry" />
        </mxCell>
        <mxCell id="kO3EOSv8IpE219HTAOuX-97" style="edgeStyle=orthogonalEdgeStyle;rounded=0;orthogonalLoop=1;jettySize=auto;html=1;exitX=0.5;exitY=1;exitDx=0;exitDy=0;entryX=1;entryY=0.5;entryDx=0;entryDy=0;" edge="1" parent="1" source="kO3EOSv8IpE219HTAOuX-3" target="kO3EOSv8IpE219HTAOuX-75">
          <mxGeometry relative="1" as="geometry" />
        </mxCell>
        <mxCell id="kO3EOSv8IpE219HTAOuX-98" style="edgeStyle=orthogonalEdgeStyle;rounded=0;orthogonalLoop=1;jettySize=auto;html=1;exitX=0.5;exitY=1;exitDx=0;exitDy=0;entryX=0;entryY=0.5;entryDx=0;entryDy=0;" edge="1" parent="1" source="kO3EOSv8IpE219HTAOuX-3" target="kO3EOSv8IpE219HTAOuX-81">
          <mxGeometry relative="1" as="geometry" />
        </mxCell>
        <mxCell id="kO3EOSv8IpE219HTAOuX-99" style="edgeStyle=orthogonalEdgeStyle;rounded=0;orthogonalLoop=1;jettySize=auto;html=1;exitX=0.5;exitY=1;exitDx=0;exitDy=0;entryX=0;entryY=0.5;entryDx=0;entryDy=0;" edge="1" parent="1" source="kO3EOSv8IpE219HTAOuX-3" target="kO3EOSv8IpE219HTAOuX-78">
          <mxGeometry relative="1" as="geometry" />
        </mxCell>
        <mxCell id="kO3EOSv8IpE219HTAOuX-100" style="edgeStyle=orthogonalEdgeStyle;rounded=0;orthogonalLoop=1;jettySize=auto;html=1;exitX=0.5;exitY=1;exitDx=0;exitDy=0;entryX=1;entryY=0.5;entryDx=0;entryDy=0;" edge="1" parent="1" source="kO3EOSv8IpE219HTAOuX-3" target="kO3EOSv8IpE219HTAOuX-82">
          <mxGeometry relative="1" as="geometry" />
        </mxCell>
        <mxCell id="kO3EOSv8IpE219HTAOuX-102" style="edgeStyle=orthogonalEdgeStyle;rounded=0;orthogonalLoop=1;jettySize=auto;html=1;exitX=0.5;exitY=1;exitDx=0;exitDy=0;entryX=0;entryY=0.5;entryDx=0;entryDy=0;" edge="1" parent="1" source="kO3EOSv8IpE219HTAOuX-3" target="kO3EOSv8IpE219HTAOuX-77">
          <mxGeometry relative="1" as="geometry" />
        </mxCell>
        <mxCell id="kO3EOSv8IpE219HTAOuX-103" style="edgeStyle=orthogonalEdgeStyle;rounded=0;orthogonalLoop=1;jettySize=auto;html=1;exitX=0.5;exitY=1;exitDx=0;exitDy=0;entryX=1;entryY=0.5;entryDx=0;entryDy=0;" edge="1" parent="1" source="kO3EOSv8IpE219HTAOuX-3" target="kO3EOSv8IpE219HTAOuX-85">
          <mxGeometry relative="1" as="geometry" />
        </mxCell>
        <mxCell id="kO3EOSv8IpE219HTAOuX-3" value="Pokedex" style="whiteSpace=wrap;html=1;align=center;" vertex="1" parent="1">
          <mxGeometry x="772.75" y="541" width="120" height="60" as="geometry" />
        </mxCell>
        <mxCell id="kO3EOSv8IpE219HTAOuX-4" value="Movimiento" style="whiteSpace=wrap;html=1;align=center;" vertex="1" parent="1">
          <mxGeometry x="1157" y="300" width="120" height="60" as="geometry" />
        </mxCell>
        <mxCell id="kO3EOSv8IpE219HTAOuX-13" style="edgeStyle=orthogonalEdgeStyle;rounded=0;orthogonalLoop=1;jettySize=auto;html=1;exitX=0;exitY=0.5;exitDx=0;exitDy=0;entryX=1;entryY=0.5;entryDx=0;entryDy=0;" edge="1" parent="1" source="kO3EOSv8IpE219HTAOuX-5" target="kO3EOSv8IpE219HTAOuX-11">
          <mxGeometry relative="1" as="geometry" />
        </mxCell>
        <mxCell id="kO3EOSv8IpE219HTAOuX-65" style="edgeStyle=orthogonalEdgeStyle;rounded=0;orthogonalLoop=1;jettySize=auto;html=1;exitX=1;exitY=0.5;exitDx=0;exitDy=0;entryX=0;entryY=0.5;entryDx=0;entryDy=0;" edge="1" parent="1" source="kO3EOSv8IpE219HTAOuX-5" target="kO3EOSv8IpE219HTAOuX-55">
          <mxGeometry relative="1" as="geometry" />
        </mxCell>
        <mxCell id="kO3EOSv8IpE219HTAOuX-66" style="edgeStyle=orthogonalEdgeStyle;rounded=0;orthogonalLoop=1;jettySize=auto;html=1;exitX=1;exitY=0.5;exitDx=0;exitDy=0;entryX=0;entryY=0.5;entryDx=0;entryDy=0;" edge="1" parent="1" source="kO3EOSv8IpE219HTAOuX-5" target="kO3EOSv8IpE219HTAOuX-54">
          <mxGeometry relative="1" as="geometry" />
        </mxCell>
        <mxCell id="kO3EOSv8IpE219HTAOuX-67" style="edgeStyle=orthogonalEdgeStyle;rounded=0;orthogonalLoop=1;jettySize=auto;html=1;exitX=1;exitY=0.5;exitDx=0;exitDy=0;entryX=0;entryY=0.5;entryDx=0;entryDy=0;" edge="1" parent="1" source="kO3EOSv8IpE219HTAOuX-5" target="kO3EOSv8IpE219HTAOuX-53">
          <mxGeometry relative="1" as="geometry">
            <Array as="points">
              <mxPoint x="450" y="-76" />
              <mxPoint x="450" y="-161" />
            </Array>
          </mxGeometry>
        </mxCell>
        <mxCell id="kO3EOSv8IpE219HTAOuX-68" style="edgeStyle=orthogonalEdgeStyle;rounded=0;orthogonalLoop=1;jettySize=auto;html=1;exitX=1;exitY=0.5;exitDx=0;exitDy=0;entryX=0;entryY=0.5;entryDx=0;entryDy=0;" edge="1" parent="1" source="kO3EOSv8IpE219HTAOuX-5" target="kO3EOSv8IpE219HTAOuX-56">
          <mxGeometry relative="1" as="geometry">
            <Array as="points">
              <mxPoint x="450" y="-76" />
              <mxPoint x="450" y="-33" />
            </Array>
          </mxGeometry>
        </mxCell>
        <mxCell id="kO3EOSv8IpE219HTAOuX-69" style="edgeStyle=orthogonalEdgeStyle;rounded=0;orthogonalLoop=1;jettySize=auto;html=1;exitX=1;exitY=0.5;exitDx=0;exitDy=0;entryX=0;entryY=0.5;entryDx=0;entryDy=0;" edge="1" parent="1" source="kO3EOSv8IpE219HTAOuX-5" target="kO3EOSv8IpE219HTAOuX-57">
          <mxGeometry relative="1" as="geometry">
            <Array as="points">
              <mxPoint x="450" y="-76" />
              <mxPoint x="450" y="9" />
            </Array>
          </mxGeometry>
        </mxCell>
        <mxCell id="kO3EOSv8IpE219HTAOuX-5" value="Objeto" style="whiteSpace=wrap;html=1;align=center;" vertex="1" parent="1">
          <mxGeometry x="305" y="-106" width="120" height="60" as="geometry" />
        </mxCell>
        <mxCell id="kO3EOSv8IpE219HTAOuX-15" style="edgeStyle=orthogonalEdgeStyle;rounded=0;orthogonalLoop=1;jettySize=auto;html=1;exitX=0.5;exitY=1;exitDx=0;exitDy=0;entryX=0.5;entryY=0;entryDx=0;entryDy=0;" edge="1" parent="1" source="kO3EOSv8IpE219HTAOuX-6" target="kO3EOSv8IpE219HTAOuX-10">
          <mxGeometry relative="1" as="geometry" />
        </mxCell>
        <mxCell id="kO3EOSv8IpE219HTAOuX-49" style="edgeStyle=orthogonalEdgeStyle;rounded=0;orthogonalLoop=1;jettySize=auto;html=1;exitX=0.5;exitY=0;exitDx=0;exitDy=0;entryX=0.5;entryY=1;entryDx=0;entryDy=0;" edge="1" parent="1" source="kO3EOSv8IpE219HTAOuX-6" target="kO3EOSv8IpE219HTAOuX-45">
          <mxGeometry relative="1" as="geometry" />
        </mxCell>
        <mxCell id="kO3EOSv8IpE219HTAOuX-50" style="edgeStyle=orthogonalEdgeStyle;rounded=0;orthogonalLoop=1;jettySize=auto;html=1;exitX=0.5;exitY=0;exitDx=0;exitDy=0;entryX=0.5;entryY=1;entryDx=0;entryDy=0;" edge="1" parent="1" source="kO3EOSv8IpE219HTAOuX-6" target="kO3EOSv8IpE219HTAOuX-47">
          <mxGeometry relative="1" as="geometry" />
        </mxCell>
        <mxCell id="kO3EOSv8IpE219HTAOuX-51" style="edgeStyle=orthogonalEdgeStyle;rounded=0;orthogonalLoop=1;jettySize=auto;html=1;exitX=0.5;exitY=0;exitDx=0;exitDy=0;entryX=0.5;entryY=1;entryDx=0;entryDy=0;" edge="1" parent="1" source="kO3EOSv8IpE219HTAOuX-6" target="kO3EOSv8IpE219HTAOuX-46">
          <mxGeometry relative="1" as="geometry" />
        </mxCell>
        <mxCell id="kO3EOSv8IpE219HTAOuX-52" style="edgeStyle=orthogonalEdgeStyle;rounded=0;orthogonalLoop=1;jettySize=auto;html=1;exitX=0.5;exitY=0;exitDx=0;exitDy=0;entryX=0.5;entryY=1;entryDx=0;entryDy=0;" edge="1" parent="1" source="kO3EOSv8IpE219HTAOuX-6" target="kO3EOSv8IpE219HTAOuX-48">
          <mxGeometry relative="1" as="geometry" />
        </mxCell>
        <mxCell id="kO3EOSv8IpE219HTAOuX-6" value="Mochila" style="whiteSpace=wrap;html=1;align=center;" vertex="1" parent="1">
          <mxGeometry x="-50" y="-106" width="120" height="60" as="geometry" />
        </mxCell>
        <mxCell id="kO3EOSv8IpE219HTAOuX-18" style="edgeStyle=orthogonalEdgeStyle;rounded=0;orthogonalLoop=1;jettySize=auto;html=1;exitX=1;exitY=0.5;exitDx=0;exitDy=0;entryX=0;entryY=0.5;entryDx=0;entryDy=0;" edge="1" parent="1" source="kO3EOSv8IpE219HTAOuX-7" target="kO3EOSv8IpE219HTAOuX-2">
          <mxGeometry relative="1" as="geometry" />
        </mxCell>
        <mxCell id="kO3EOSv8IpE219HTAOuX-7" value="tiene" style="shape=rhombus;perimeter=rhombusPerimeter;whiteSpace=wrap;html=1;align=center;" vertex="1" parent="1">
          <mxGeometry x="330" y="300" width="120" height="60" as="geometry" />
        </mxCell>
        <mxCell id="kO3EOSv8IpE219HTAOuX-20" style="edgeStyle=orthogonalEdgeStyle;rounded=0;orthogonalLoop=1;jettySize=auto;html=1;" edge="1" parent="1" source="kO3EOSv8IpE219HTAOuX-8" target="kO3EOSv8IpE219HTAOuX-3">
          <mxGeometry relative="1" as="geometry" />
        </mxCell>
        <mxCell id="kO3EOSv8IpE219HTAOuX-8" value="proviene" style="shape=rhombus;perimeter=rhombusPerimeter;whiteSpace=wrap;html=1;align=center;" vertex="1" parent="1">
          <mxGeometry x="772" y="424" width="120" height="60" as="geometry" />
        </mxCell>
        <mxCell id="kO3EOSv8IpE219HTAOuX-22" style="edgeStyle=orthogonalEdgeStyle;rounded=0;orthogonalLoop=1;jettySize=auto;html=1;exitX=1;exitY=0.5;exitDx=0;exitDy=0;" edge="1" parent="1" source="kO3EOSv8IpE219HTAOuX-9" target="kO3EOSv8IpE219HTAOuX-4">
          <mxGeometry relative="1" as="geometry" />
        </mxCell>
        <mxCell id="kO3EOSv8IpE219HTAOuX-9" value="aprende" style="shape=rhombus;perimeter=rhombusPerimeter;whiteSpace=wrap;html=1;align=center;" vertex="1" parent="1">
          <mxGeometry x="992" y="300" width="120" height="60" as="geometry" />
        </mxCell>
        <mxCell id="kO3EOSv8IpE219HTAOuX-70" style="edgeStyle=orthogonalEdgeStyle;rounded=0;orthogonalLoop=1;jettySize=auto;html=1;exitX=0.5;exitY=1;exitDx=0;exitDy=0;" edge="1" parent="1" source="kO3EOSv8IpE219HTAOuX-10" target="kO3EOSv8IpE219HTAOuX-1">
          <mxGeometry relative="1" as="geometry" />
        </mxCell>
        <mxCell id="kO3EOSv8IpE219HTAOuX-10" value="pertenece" style="shape=rhombus;perimeter=rhombusPerimeter;whiteSpace=wrap;html=1;align=center;" vertex="1" parent="1">
          <mxGeometry x="-50" y="108" width="120" height="60" as="geometry" />
        </mxCell>
        <mxCell id="kO3EOSv8IpE219HTAOuX-14" style="edgeStyle=orthogonalEdgeStyle;rounded=0;orthogonalLoop=1;jettySize=auto;html=1;exitX=0;exitY=0.5;exitDx=0;exitDy=0;" edge="1" parent="1" source="kO3EOSv8IpE219HTAOuX-11" target="kO3EOSv8IpE219HTAOuX-6">
          <mxGeometry relative="1" as="geometry" />
        </mxCell>
        <mxCell id="kO3EOSv8IpE219HTAOuX-11" value="es_almacenado" style="shape=rhombus;perimeter=rhombusPerimeter;whiteSpace=wrap;html=1;align=center;" vertex="1" parent="1">
          <mxGeometry x="120" y="-106" width="120" height="60" as="geometry" />
        </mxCell>
        <mxCell id="kO3EOSv8IpE219HTAOuX-23" value="id_entrenador" style="ellipse;whiteSpace=wrap;html=1;align=center;fontStyle=4;" vertex="1" parent="1">
          <mxGeometry x="-200" y="250" width="90" height="30" as="geometry" />
        </mxCell>
        <mxCell id="kO3EOSv8IpE219HTAOuX-24" value="nombre" style="ellipse;whiteSpace=wrap;html=1;align=center;" vertex="1" parent="1">
          <mxGeometry x="-190" y="290" width="70" height="30" as="geometry" />
        </mxCell>
        <mxCell id="kO3EOSv8IpE219HTAOuX-25" value="pass" style="ellipse;whiteSpace=wrap;html=1;align=center;" vertex="1" parent="1">
          <mxGeometry x="-190" y="330" width="70" height="30" as="geometry" />
        </mxCell>
        <mxCell id="kO3EOSv8IpE219HTAOuX-26" value="dinero" style="ellipse;whiteSpace=wrap;html=1;align=center;" vertex="1" parent="1">
          <mxGeometry x="-190" y="410" width="70" height="30" as="geometry" />
        </mxCell>
        <mxCell id="kO3EOSv8IpE219HTAOuX-27" value="id_mochila" style="ellipse;whiteSpace=wrap;html=1;align=center;" vertex="1" parent="1">
          <mxGeometry x="-195" y="450" width="80" height="30" as="geometry" />
        </mxCell>
        <mxCell id="kO3EOSv8IpE219HTAOuX-28" value="foto" style="ellipse;whiteSpace=wrap;html=1;align=center;" vertex="1" parent="1">
          <mxGeometry x="-185" y="370" width="60" height="30" as="geometry" />
        </mxCell>
        <mxCell id="kO3EOSv8IpE219HTAOuX-45" value="id_mochila" style="ellipse;whiteSpace=wrap;html=1;align=center;fontStyle=4;" vertex="1" parent="1">
          <mxGeometry x="-165" y="-196" width="90" height="30" as="geometry" />
        </mxCell>
        <mxCell id="kO3EOSv8IpE219HTAOuX-46" value="id_objeto" style="ellipse;whiteSpace=wrap;html=1;align=center;" vertex="1" parent="1">
          <mxGeometry x="25" y="-196" width="70" height="30" as="geometry" />
        </mxCell>
        <mxCell id="kO3EOSv8IpE219HTAOuX-47" value="id_entrenador" style="ellipse;whiteSpace=wrap;html=1;align=center;" vertex="1" parent="1">
          <mxGeometry x="-65" y="-196" width="80" height="30" as="geometry" />
        </mxCell>
        <mxCell id="kO3EOSv8IpE219HTAOuX-48" value="cantidad" style="ellipse;whiteSpace=wrap;html=1;align=center;" vertex="1" parent="1">
          <mxGeometry x="105" y="-196" width="80" height="30" as="geometry" />
        </mxCell>
        <mxCell id="kO3EOSv8IpE219HTAOuX-53" value="id_objeto" style="ellipse;whiteSpace=wrap;html=1;align=center;fontStyle=4;" vertex="1" parent="1">
          <mxGeometry x="470" y="-176" width="80" height="30" as="geometry" />
        </mxCell>
        <mxCell id="kO3EOSv8IpE219HTAOuX-54" value="nombre" style="ellipse;whiteSpace=wrap;html=1;align=center;" vertex="1" parent="1">
          <mxGeometry x="475" y="-133" width="70" height="30" as="geometry" />
        </mxCell>
        <mxCell id="kO3EOSv8IpE219HTAOuX-55" value="precio" style="ellipse;whiteSpace=wrap;html=1;align=center;" vertex="1" parent="1">
          <mxGeometry x="475" y="-91" width="70" height="30" as="geometry" />
        </mxCell>
        <mxCell id="kO3EOSv8IpE219HTAOuX-56" value="id_capturado" style="ellipse;whiteSpace=wrap;html=1;align=center;" vertex="1" parent="1">
          <mxGeometry x="470" y="-48" width="80" height="30" as="geometry" />
        </mxCell>
        <mxCell id="kO3EOSv8IpE219HTAOuX-57" value="id_entrenador" style="ellipse;whiteSpace=wrap;html=1;align=center;" vertex="1" parent="1">
          <mxGeometry x="470" y="-6" width="80" height="30" as="geometry" />
        </mxCell>
        <mxCell id="kO3EOSv8IpE219HTAOuX-72" style="edgeStyle=orthogonalEdgeStyle;rounded=0;orthogonalLoop=1;jettySize=auto;html=1;exitX=0.5;exitY=1;exitDx=0;exitDy=0;" edge="1" parent="1">
          <mxGeometry relative="1" as="geometry">
            <mxPoint x="739.75" y="785.5" as="sourcePoint" />
            <mxPoint x="739.75" y="785.5" as="targetPoint" />
          </mxGeometry>
        </mxCell>
        <mxCell id="kO3EOSv8IpE219HTAOuX-73" value="id_pokedex" style="ellipse;whiteSpace=wrap;html=1;align=center;fontStyle=4;" vertex="1" parent="1">
          <mxGeometry x="697.25" y="618.5" width="80" height="30" as="geometry" />
        </mxCell>
        <mxCell id="kO3EOSv8IpE219HTAOuX-74" value="nombre" style="ellipse;whiteSpace=wrap;html=1;align=center;" vertex="1" parent="1">
          <mxGeometry x="705.25" y="656.5" width="60" height="30" as="geometry" />
        </mxCell>
        <mxCell id="kO3EOSv8IpE219HTAOuX-75" value="sexo" style="ellipse;whiteSpace=wrap;html=1;align=center;" vertex="1" parent="1">
          <mxGeometry x="707.75" y="771.5" width="60" height="26.5" as="geometry" />
        </mxCell>
        <mxCell id="kO3EOSv8IpE219HTAOuX-76" value="vitalidad" style="ellipse;whiteSpace=wrap;html=1;align=center;" vertex="1" parent="1">
          <mxGeometry x="696.5" y="694" width="80" height="30" as="geometry" />
        </mxCell>
        <mxCell id="kO3EOSv8IpE219HTAOuX-77" value="defensa_especial" style="ellipse;whiteSpace=wrap;html=1;align=center;" vertex="1" parent="1">
          <mxGeometry x="868.75" y="803" width="103.5" height="30" as="geometry" />
        </mxCell>
        <mxCell id="kO3EOSv8IpE219HTAOuX-78" value="defensa" style="ellipse;whiteSpace=wrap;html=1;align=center;" vertex="1" parent="1">
          <mxGeometry x="881" y="727.5" width="80" height="30" as="geometry" />
        </mxCell>
        <mxCell id="kO3EOSv8IpE219HTAOuX-79" value="velocidad" style="ellipse;whiteSpace=wrap;html=1;align=center;" vertex="1" parent="1">
          <mxGeometry x="695.75" y="733" width="80" height="30" as="geometry" />
        </mxCell>
        <mxCell id="kO3EOSv8IpE219HTAOuX-80" value="estamina" style="ellipse;whiteSpace=wrap;html=1;align=center;" vertex="1" parent="1">
          <mxGeometry x="881" y="656" width="80" height="30" as="geometry" />
        </mxCell>
        <mxCell id="kO3EOSv8IpE219HTAOuX-81" value="ataque_especial" style="ellipse;whiteSpace=wrap;html=1;align=center;" vertex="1" parent="1">
          <mxGeometry x="869.25" y="766" width="102.5" height="30" as="geometry" />
        </mxCell>
        <mxCell id="kO3EOSv8IpE219HTAOuX-82" value="tipo_1" style="ellipse;whiteSpace=wrap;html=1;align=center;" vertex="1" parent="1">
          <mxGeometry x="705.25" y="806" width="65" height="27" as="geometry" />
        </mxCell>
        <mxCell id="kO3EOSv8IpE219HTAOuX-83" value="tipo_2" style="ellipse;whiteSpace=wrap;html=1;align=center;" vertex="1" parent="1">
          <mxGeometry x="888" y="620" width="65" height="27" as="geometry" />
        </mxCell>
        <mxCell id="kO3EOSv8IpE219HTAOuX-84" value="ataque" style="ellipse;whiteSpace=wrap;html=1;align=center;" vertex="1" parent="1">
          <mxGeometry x="888" y="694" width="65" height="27" as="geometry" />
        </mxCell>
        <mxCell id="kO3EOSv8IpE219HTAOuX-85" value="foto" style="ellipse;whiteSpace=wrap;html=1;align=center;" vertex="1" parent="1">
          <mxGeometry x="697.75" y="844" width="80" height="30" as="geometry" />
        </mxCell>
        <mxCell id="kO3EOSv8IpE219HTAOuX-117" style="edgeStyle=orthogonalEdgeStyle;rounded=0;orthogonalLoop=1;jettySize=auto;html=1;exitX=0.5;exitY=1;exitDx=0;exitDy=0;" edge="1" parent="1" source="kO3EOSv8IpE219HTAOuX-120">
          <mxGeometry relative="1" as="geometry">
            <mxPoint x="836.5" y="179" as="sourcePoint" />
            <mxPoint x="836.5" y="179" as="targetPoint" />
          </mxGeometry>
        </mxCell>
        <mxCell id="kO3EOSv8IpE219HTAOuX-118" value="id_pokedex" style="ellipse;whiteSpace=wrap;html=1;align=center;fontStyle=4;" vertex="1" parent="1">
          <mxGeometry x="466" y="70.5" width="80" height="30" as="geometry" />
        </mxCell>
        <mxCell id="kO3EOSv8IpE219HTAOuX-171" style="edgeStyle=orthogonalEdgeStyle;rounded=0;orthogonalLoop=1;jettySize=auto;html=1;exitX=0.5;exitY=0;exitDx=0;exitDy=0;entryX=0.5;entryY=1;entryDx=0;entryDy=0;" edge="1" parent="1" source="kO3EOSv8IpE219HTAOuX-119" target="kO3EOSv8IpE219HTAOuX-118">
          <mxGeometry relative="1" as="geometry" />
        </mxCell>
        <mxCell id="kO3EOSv8IpE219HTAOuX-119" value="nombre" style="ellipse;whiteSpace=wrap;html=1;align=center;" vertex="1" parent="1">
          <mxGeometry x="477.25" y="120" width="60" height="30" as="geometry" />
        </mxCell>
        <mxCell id="kO3EOSv8IpE219HTAOuX-121" value="vitalidad" style="ellipse;whiteSpace=wrap;html=1;align=center;" vertex="1" parent="1">
          <mxGeometry x="789" y="69" width="80" height="30" as="geometry" />
        </mxCell>
        <mxCell id="kO3EOSv8IpE219HTAOuX-183" style="edgeStyle=orthogonalEdgeStyle;rounded=0;orthogonalLoop=1;jettySize=auto;html=1;" edge="1" parent="1" source="kO3EOSv8IpE219HTAOuX-122" target="kO3EOSv8IpE219HTAOuX-126">
          <mxGeometry relative="1" as="geometry" />
        </mxCell>
        <mxCell id="kO3EOSv8IpE219HTAOuX-122" value="defensa_especial" style="ellipse;whiteSpace=wrap;html=1;align=center;" vertex="1" parent="1">
          <mxGeometry x="1082.75" y="220" width="103.5" height="30" as="geometry" />
        </mxCell>
        <mxCell id="kO3EOSv8IpE219HTAOuX-185" style="edgeStyle=orthogonalEdgeStyle;rounded=0;orthogonalLoop=1;jettySize=auto;html=1;exitX=0.5;exitY=0;exitDx=0;exitDy=0;" edge="1" parent="1" source="kO3EOSv8IpE219HTAOuX-123">
          <mxGeometry relative="1" as="geometry">
            <mxPoint x="1134.4736842105262" y="100" as="targetPoint" />
          </mxGeometry>
        </mxCell>
        <mxCell id="kO3EOSv8IpE219HTAOuX-123" value="defensa" style="ellipse;whiteSpace=wrap;html=1;align=center;" vertex="1" parent="1">
          <mxGeometry x="1094.5" y="120" width="80" height="30" as="geometry" />
        </mxCell>
        <mxCell id="kO3EOSv8IpE219HTAOuX-178" style="edgeStyle=orthogonalEdgeStyle;rounded=0;orthogonalLoop=1;jettySize=auto;html=1;exitX=0.5;exitY=0;exitDx=0;exitDy=0;entryX=0.5;entryY=1;entryDx=0;entryDy=0;" edge="1" parent="1" source="kO3EOSv8IpE219HTAOuX-124" target="kO3EOSv8IpE219HTAOuX-121">
          <mxGeometry relative="1" as="geometry" />
        </mxCell>
        <mxCell id="kO3EOSv8IpE219HTAOuX-124" value="velocidad" style="ellipse;whiteSpace=wrap;html=1;align=center;" vertex="1" parent="1">
          <mxGeometry x="790.5" y="120" width="80" height="30" as="geometry" />
        </mxCell>
        <mxCell id="kO3EOSv8IpE219HTAOuX-179" style="edgeStyle=orthogonalEdgeStyle;rounded=0;orthogonalLoop=1;jettySize=auto;html=1;exitX=0.5;exitY=0;exitDx=0;exitDy=0;entryX=0.5;entryY=1;entryDx=0;entryDy=0;" edge="1" parent="1" source="kO3EOSv8IpE219HTAOuX-125" target="kO3EOSv8IpE219HTAOuX-128">
          <mxGeometry relative="1" as="geometry" />
        </mxCell>
        <mxCell id="kO3EOSv8IpE219HTAOuX-125" value="estamina" style="ellipse;whiteSpace=wrap;html=1;align=center;" vertex="1" parent="1">
          <mxGeometry x="942.5" y="220" width="80" height="30" as="geometry" />
        </mxCell>
        <mxCell id="kO3EOSv8IpE219HTAOuX-184" style="edgeStyle=orthogonalEdgeStyle;rounded=0;orthogonalLoop=1;jettySize=auto;html=1;exitX=0.5;exitY=0;exitDx=0;exitDy=0;entryX=0.5;entryY=1;entryDx=0;entryDy=0;" edge="1" parent="1" source="kO3EOSv8IpE219HTAOuX-126" target="kO3EOSv8IpE219HTAOuX-123">
          <mxGeometry relative="1" as="geometry" />
        </mxCell>
        <mxCell id="kO3EOSv8IpE219HTAOuX-126" value="ataque_especial" style="ellipse;whiteSpace=wrap;html=1;align=center;" vertex="1" parent="1">
          <mxGeometry x="1083.25" y="166" width="102.5" height="30" as="geometry" />
        </mxCell>
        <mxCell id="kO3EOSv8IpE219HTAOuX-175" style="edgeStyle=orthogonalEdgeStyle;rounded=0;orthogonalLoop=1;jettySize=auto;html=1;exitX=0.5;exitY=0;exitDx=0;exitDy=0;entryX=0.5;entryY=1;entryDx=0;entryDy=0;" edge="1" parent="1" source="kO3EOSv8IpE219HTAOuX-127" target="kO3EOSv8IpE219HTAOuX-120">
          <mxGeometry relative="1" as="geometry" />
        </mxCell>
        <mxCell id="kO3EOSv8IpE219HTAOuX-127" value="tipo_1" style="ellipse;whiteSpace=wrap;html=1;align=center;" vertex="1" parent="1">
          <mxGeometry x="799.5" y="221" width="65" height="27" as="geometry" />
        </mxCell>
        <mxCell id="kO3EOSv8IpE219HTAOuX-180" style="edgeStyle=orthogonalEdgeStyle;rounded=0;orthogonalLoop=1;jettySize=auto;html=1;exitX=0.5;exitY=0;exitDx=0;exitDy=0;entryX=0.5;entryY=1;entryDx=0;entryDy=0;" edge="1" parent="1" source="kO3EOSv8IpE219HTAOuX-128" target="kO3EOSv8IpE219HTAOuX-132">
          <mxGeometry relative="1" as="geometry" />
        </mxCell>
        <mxCell id="kO3EOSv8IpE219HTAOuX-128" value="tipo_2" style="ellipse;whiteSpace=wrap;html=1;align=center;" vertex="1" parent="1">
          <mxGeometry x="949.5" y="167.5" width="65" height="27" as="geometry" />
        </mxCell>
        <mxCell id="kO3EOSv8IpE219HTAOuX-129" value="ataque" style="ellipse;whiteSpace=wrap;html=1;align=center;" vertex="1" parent="1">
          <mxGeometry x="1102" y="70.5" width="65" height="27" as="geometry" />
        </mxCell>
        <mxCell id="kO3EOSv8IpE219HTAOuX-130" value="foto" style="ellipse;whiteSpace=wrap;html=1;align=center;" vertex="1" parent="1">
          <mxGeometry x="948.5" y="69" width="60" height="30" as="geometry" />
        </mxCell>
        <mxCell id="kO3EOSv8IpE219HTAOuX-182" style="edgeStyle=orthogonalEdgeStyle;rounded=0;orthogonalLoop=1;jettySize=auto;html=1;exitX=0.5;exitY=0;exitDx=0;exitDy=0;entryX=0.5;entryY=1;entryDx=0;entryDy=0;" edge="1" parent="1" source="kO3EOSv8IpE219HTAOuX-132" target="kO3EOSv8IpE219HTAOuX-130">
          <mxGeometry relative="1" as="geometry" />
        </mxCell>
        <mxCell id="kO3EOSv8IpE219HTAOuX-132" value="foto_espalda" style="ellipse;whiteSpace=wrap;html=1;align=center;" vertex="1" parent="1">
          <mxGeometry x="942" y="120" width="75.5" height="30" as="geometry" />
        </mxCell>
        <mxCell id="kO3EOSv8IpE219HTAOuX-170" style="edgeStyle=orthogonalEdgeStyle;rounded=0;orthogonalLoop=1;jettySize=auto;html=1;exitX=0.5;exitY=0;exitDx=0;exitDy=0;" edge="1" parent="1" source="kO3EOSv8IpE219HTAOuX-133" target="kO3EOSv8IpE219HTAOuX-119">
          <mxGeometry relative="1" as="geometry" />
        </mxCell>
        <mxCell id="kO3EOSv8IpE219HTAOuX-133" value="mote" style="ellipse;whiteSpace=wrap;html=1;align=center;" vertex="1" parent="1">
          <mxGeometry x="477.25" y="166" width="60" height="30" as="geometry" />
        </mxCell>
        <mxCell id="kO3EOSv8IpE219HTAOuX-169" style="edgeStyle=orthogonalEdgeStyle;rounded=0;orthogonalLoop=1;jettySize=auto;html=1;exitX=0.5;exitY=0;exitDx=0;exitDy=0;" edge="1" parent="1" source="kO3EOSv8IpE219HTAOuX-134">
          <mxGeometry relative="1" as="geometry">
            <mxPoint x="507.105263157895" y="200" as="targetPoint" />
          </mxGeometry>
        </mxCell>
        <mxCell id="kO3EOSv8IpE219HTAOuX-134" value="equipo" style="ellipse;whiteSpace=wrap;html=1;align=center;" vertex="1" parent="1">
          <mxGeometry x="477.25" y="218" width="60" height="30" as="geometry" />
        </mxCell>
        <mxCell id="kO3EOSv8IpE219HTAOuX-135" value="movimiento1" style="ellipse;whiteSpace=wrap;html=1;align=center;" vertex="1" parent="1">
          <mxGeometry x="625" y="69" width="80" height="30" as="geometry" />
        </mxCell>
        <mxCell id="kO3EOSv8IpE219HTAOuX-174" style="edgeStyle=orthogonalEdgeStyle;rounded=0;orthogonalLoop=1;jettySize=auto;html=1;exitX=0.5;exitY=0;exitDx=0;exitDy=0;entryX=0.5;entryY=1;entryDx=0;entryDy=0;" edge="1" parent="1" source="kO3EOSv8IpE219HTAOuX-136" target="kO3EOSv8IpE219HTAOuX-135">
          <mxGeometry relative="1" as="geometry" />
        </mxCell>
        <mxCell id="kO3EOSv8IpE219HTAOuX-136" value="movimiento2" style="ellipse;whiteSpace=wrap;html=1;align=center;" vertex="1" parent="1">
          <mxGeometry x="625" y="120" width="80" height="30" as="geometry" />
        </mxCell>
        <mxCell id="kO3EOSv8IpE219HTAOuX-173" style="edgeStyle=orthogonalEdgeStyle;rounded=0;orthogonalLoop=1;jettySize=auto;html=1;exitX=0.5;exitY=0;exitDx=0;exitDy=0;entryX=0.5;entryY=1;entryDx=0;entryDy=0;" edge="1" parent="1" source="kO3EOSv8IpE219HTAOuX-137" target="kO3EOSv8IpE219HTAOuX-136">
          <mxGeometry relative="1" as="geometry" />
        </mxCell>
        <mxCell id="kO3EOSv8IpE219HTAOuX-137" value="movimiento3" style="ellipse;whiteSpace=wrap;html=1;align=center;" vertex="1" parent="1">
          <mxGeometry x="625" y="166" width="80" height="30" as="geometry" />
        </mxCell>
        <mxCell id="kO3EOSv8IpE219HTAOuX-172" style="edgeStyle=orthogonalEdgeStyle;rounded=0;orthogonalLoop=1;jettySize=auto;html=1;exitX=0.5;exitY=0;exitDx=0;exitDy=0;entryX=0.5;entryY=1;entryDx=0;entryDy=0;" edge="1" parent="1" source="kO3EOSv8IpE219HTAOuX-138" target="kO3EOSv8IpE219HTAOuX-137">
          <mxGeometry relative="1" as="geometry" />
        </mxCell>
        <mxCell id="kO3EOSv8IpE219HTAOuX-138" value="movimiento4" style="ellipse;whiteSpace=wrap;html=1;align=center;" vertex="1" parent="1">
          <mxGeometry x="625" y="218" width="80" height="30" as="geometry" />
        </mxCell>
        <mxCell id="kO3EOSv8IpE219HTAOuX-139" value="id_entrenador" style="ellipse;whiteSpace=wrap;html=1;align=center;" vertex="1" parent="1">
          <mxGeometry x="1242" y="69.5" width="80" height="30" as="geometry" />
        </mxCell>
        <mxCell id="kO3EOSv8IpE219HTAOuX-187" style="edgeStyle=orthogonalEdgeStyle;rounded=0;orthogonalLoop=1;jettySize=auto;html=1;exitX=0.5;exitY=0;exitDx=0;exitDy=0;" edge="1" parent="1" source="kO3EOSv8IpE219HTAOuX-140">
          <mxGeometry relative="1" as="geometry">
            <mxPoint x="1281.842105263158" y="100" as="targetPoint" />
          </mxGeometry>
        </mxCell>
        <mxCell id="kO3EOSv8IpE219HTAOuX-140" value="id_pokedex" style="ellipse;whiteSpace=wrap;html=1;align=center;" vertex="1" parent="1">
          <mxGeometry x="1242" y="120" width="80" height="30" as="geometry" />
        </mxCell>
        <mxCell id="kO3EOSv8IpE219HTAOuX-177" style="edgeStyle=orthogonalEdgeStyle;rounded=0;orthogonalLoop=1;jettySize=auto;html=1;exitX=0.5;exitY=0;exitDx=0;exitDy=0;entryX=0.5;entryY=1;entryDx=0;entryDy=0;" edge="1" parent="1" source="kO3EOSv8IpE219HTAOuX-120" target="kO3EOSv8IpE219HTAOuX-124">
          <mxGeometry relative="1" as="geometry" />
        </mxCell>
        <mxCell id="kO3EOSv8IpE219HTAOuX-120" value="sexo" style="ellipse;whiteSpace=wrap;html=1;align=center;" vertex="1" parent="1">
          <mxGeometry x="802" y="168.5" width="60" height="26.5" as="geometry" />
        </mxCell>
        <mxCell id="kO3EOSv8IpE219HTAOuX-189" value="(1,1)" style="text;html=1;strokeColor=none;fillColor=none;align=center;verticalAlign=middle;whiteSpace=wrap;rounded=0;" vertex="1" parent="1">
          <mxGeometry x="15" y="260" width="60" height="30" as="geometry" />
        </mxCell>
        <mxCell id="kO3EOSv8IpE219HTAOuX-190" value="(1,1)" style="text;html=1;strokeColor=none;fillColor=none;align=center;verticalAlign=middle;whiteSpace=wrap;rounded=0;" vertex="1" parent="1">
          <mxGeometry x="15" y="-36" width="60" height="30" as="geometry" />
        </mxCell>
        <mxCell id="kO3EOSv8IpE219HTAOuX-191" value="(1,n)" style="text;html=1;strokeColor=none;fillColor=none;align=center;verticalAlign=middle;whiteSpace=wrap;rounded=0;" vertex="1" parent="1">
          <mxGeometry x="245" y="-71" width="60" height="30" as="geometry" />
        </mxCell>
        <mxCell id="kO3EOSv8IpE219HTAOuX-192" value="(1,1)" style="text;html=1;strokeColor=none;fillColor=none;align=center;verticalAlign=middle;whiteSpace=wrap;rounded=0;" vertex="1" parent="1">
          <mxGeometry x="60" y="-71" width="60" height="30" as="geometry" />
        </mxCell>
        <mxCell id="kO3EOSv8IpE219HTAOuX-193" value="1:N" style="text;html=1;align=center;verticalAlign=middle;resizable=0;points=[];autosize=1;strokeColor=none;fillColor=none;" vertex="1" parent="1">
          <mxGeometry x="160" y="-46" width="40" height="30" as="geometry" />
        </mxCell>
        <mxCell id="kO3EOSv8IpE219HTAOuX-194" value="1:1" style="text;html=1;align=center;verticalAlign=middle;resizable=0;points=[];autosize=1;strokeColor=none;fillColor=none;" vertex="1" parent="1">
          <mxGeometry x="70" y="123" width="40" height="30" as="geometry" />
        </mxCell>
        <mxCell id="kO3EOSv8IpE219HTAOuX-195" value="(1,N)" style="text;html=1;strokeColor=none;fillColor=none;align=center;verticalAlign=middle;whiteSpace=wrap;rounded=0;" vertex="1" parent="1">
          <mxGeometry x="695.75" y="340" width="60" height="30" as="geometry" />
        </mxCell>
        <mxCell id="kO3EOSv8IpE219HTAOuX-196" value="(1,1)" style="text;html=1;strokeColor=none;fillColor=none;align=center;verticalAlign=middle;whiteSpace=wrap;rounded=0;" vertex="1" parent="1">
          <mxGeometry x="70" y="340" width="60" height="30" as="geometry" />
        </mxCell>
        <mxCell id="kO3EOSv8IpE219HTAOuX-197" value="1:N" style="text;html=1;align=center;verticalAlign=middle;resizable=0;points=[];autosize=1;strokeColor=none;fillColor=none;" vertex="1" parent="1">
          <mxGeometry x="369" y="360" width="40" height="30" as="geometry" />
        </mxCell>
        <mxCell id="kO3EOSv8IpE219HTAOuX-198" value="(1,1)" style="text;html=1;strokeColor=none;fillColor=none;align=center;verticalAlign=middle;whiteSpace=wrap;rounded=0;" vertex="1" parent="1">
          <mxGeometry x="840" y="508" width="60" height="30" as="geometry" />
        </mxCell>
        <mxCell id="kO3EOSv8IpE219HTAOuX-200" value="(1,N)" style="text;html=1;strokeColor=none;fillColor=none;align=center;verticalAlign=middle;whiteSpace=wrap;rounded=0;" vertex="1" parent="1">
          <mxGeometry x="840" y="360" width="60" height="30" as="geometry" />
        </mxCell>
        <mxCell id="kO3EOSv8IpE219HTAOuX-201" value="1:N" style="text;html=1;align=center;verticalAlign=middle;resizable=0;points=[];autosize=1;strokeColor=none;fillColor=none;" vertex="1" parent="1">
          <mxGeometry x="888" y="440" width="40" height="30" as="geometry" />
        </mxCell>
        <mxCell id="kO3EOSv8IpE219HTAOuX-202" value="(1,N)" style="text;html=1;strokeColor=none;fillColor=none;align=center;verticalAlign=middle;whiteSpace=wrap;rounded=0;" vertex="1" parent="1">
          <mxGeometry x="1097" y="340" width="60" height="30" as="geometry" />
        </mxCell>
        <mxCell id="kO3EOSv8IpE219HTAOuX-203" value="(1,1)" style="text;html=1;strokeColor=none;fillColor=none;align=center;verticalAlign=middle;whiteSpace=wrap;rounded=0;" vertex="1" parent="1">
          <mxGeometry x="890.5" y="340" width="60" height="30" as="geometry" />
        </mxCell>
        <mxCell id="kO3EOSv8IpE219HTAOuX-204" value="1:N" style="text;html=1;align=center;verticalAlign=middle;resizable=0;points=[];autosize=1;strokeColor=none;fillColor=none;" vertex="1" parent="1">
          <mxGeometry x="1032" y="360" width="40" height="30" as="geometry" />
        </mxCell>
      </root>
    </mxGraphModel>
  </diagram>
</mxfile>
